<svg xmlns="http://www.w3.org/2000/svg" xmlns:xlink="http://www.w3.org/1999/xlink" viewBox="0 0 1024 1024"><defs><style>.cls-1{fill:#6ff1e6;}.cls-2{isolation:isolate;}.cls-3{fill:#000c16;}.cls-4{fill:#00182b;}.cls-5{fill:url(#linear-gradient);}.cls-6{fill:#00284a;}.cls-7{fill:url(#linear-gradient-2);}.cls-8{fill:url(#linear-gradient-3);}.cls-9{fill:#009e91;}.cls-10{fill:#0dc1b2;}.cls-11{fill:url(#radial-gradient);}.cls-12{fill:url(#radial-gradient-2);}.cls-13{fill:url(#radial-gradient-3);}.cls-14{fill:url(#radial-gradient-4);}.cls-15{fill:url(#radial-gradient-5);}.cls-16{fill:url(#radial-gradient-6);}.cls-17{fill:#43e6d9;}.cls-18{fill:#00d6c4;}.cls-19{fill:#212121;}.cls-19,.cls-40{opacity:0.2;}.cls-20{fill:url(#linear-gradient-4);}.cls-21,.cls-38{opacity:0.5;}.cls-21{mix-blend-mode:multiply;fill:url(#linear-gradient-5);}.cls-22{fill:url(#linear-gradient-6);}.cls-23,.cls-25,.cls-27,.cls-29{opacity:0.4;}.cls-23{fill:url(#linear-gradient-7);}.cls-24{fill:url(#linear-gradient-8);}.cls-25{fill:url(#linear-gradient-9);}.cls-26{fill:url(#linear-gradient-10);}.cls-27{fill:url(#linear-gradient-11);}.cls-28{fill:url(#linear-gradient-12);}.cls-29{fill:url(#linear-gradient-13);}.cls-30{clip-path:url(#clip-path);}.cls-31{fill:#13d2c3;}.cls-32{fill:#06afa2;}.cls-33{fill:#09b8aa;}.cls-34{fill:url(#linear-gradient-14);}.cls-35{fill:url(#linear-gradient-15);}.cls-36{fill:url(#linear-gradient-16);}.cls-37{fill:url(#linear-gradient-17);}.cls-38{fill:#424242;}.cls-39{fill:#878787;}.cls-40{fill:url(#linear-gradient-18);}.cls-41,.cls-42{fill:#fff;}.cls-41{opacity:0.6;}.cls-42{opacity:0.8;}.cls-43{fill:url(#radial-gradient-7);}</style><linearGradient id="linear-gradient" x1="514.5" y1="129.33" x2="514.5" y2="900.53" gradientUnits="userSpaceOnUse"><stop offset="0" stop-color="#dfdfdf"/><stop offset="1" stop-color="#878787"/></linearGradient><linearGradient id="linear-gradient-2" x1="514.5" y1="201.12" x2="514.5" y2="828.73" gradientTransform="translate(514.8 -212.99) rotate(45)" gradientUnits="userSpaceOnUse"><stop offset="0" stop-color="#00203b"/><stop offset="1" stop-color="#001c34"/></linearGradient><linearGradient id="linear-gradient-3" x1="514.5" y1="206.27" x2="514.5" y2="823.59" gradientTransform="translate(514.8 -212.99) rotate(45)" gradientUnits="userSpaceOnUse"><stop offset="0" stop-color="#001425"/><stop offset="1" stop-color="#00182c"/></linearGradient><radialGradient id="radial-gradient" cx="327.67" cy="292.28" r="7.72" gradientUnits="userSpaceOnUse"><stop offset="0" stop-color="#eee"/><stop offset="0.13" stop-color="#e5e5e5"/><stop offset="0.33" stop-color="#cdcdcd"/><stop offset="0.59" stop-color="#a5a5a5"/><stop offset="0.89" stop-color="#6f6f6f"/><stop offset="1" stop-color="#595959"/></radialGradient><radialGradient id="radial-gradient-2" cx="327.69" cy="737.58" r="7.72" xlink:href="#radial-gradient"/><radialGradient id="radial-gradient-3" cx="701.34" cy="737.57" r="7.72" xlink:href="#radial-gradient"/><radialGradient id="radial-gradient-4" cx="766.22" cy="660.24" r="7.72" xlink:href="#radial-gradient"/><radialGradient id="radial-gradient-5" cx="766.22" cy="369.59" r="7.72" xlink:href="#radial-gradient"/><radialGradient id="radial-gradient-6" cx="701.33" cy="292.26" r="7.72" xlink:href="#radial-gradient"/><linearGradient id="linear-gradient-4" x1="673.98" y1="247.42" x2="673.98" y2="782.44" gradientUnits="userSpaceOnUse"><stop offset="0" stop-color="#f4f4f4"/><stop offset="0.07" stop-color="#efefef"/><stop offset="0.15" stop-color="#e2e2e2"/><stop offset="0.24" stop-color="#cbcbcb"/><stop offset="0.32" stop-color="#ababab"/><stop offset="0.42" stop-color="#828282"/><stop offset="0.51" stop-color="#515151"/><stop offset="0.53" stop-color="#414141"/><stop offset="0.7" stop-color="#c1c1c1"/><stop offset="1" stop-color="#414141"/></linearGradient><linearGradient id="linear-gradient-5" x1="673.98" y1="295.78" x2="673.98" y2="830.8" gradientUnits="userSpaceOnUse"><stop offset="0" stop-color="#fff"/><stop offset="0.01" stop-color="#fdfdfd"/><stop offset="0.02" stop-color="#f6f6f6"/><stop offset="0.02" stop-color="#ebebeb"/><stop offset="0.03" stop-color="#dadada"/><stop offset="0.03" stop-color="#c4c4c4"/><stop offset="0.03" stop-color="#a8a8a8"/><stop offset="0.03" stop-color="#888"/><stop offset="0.03" stop-color="#626262"/><stop offset="0.04" stop-color="#373737"/><stop offset="0.04" stop-color="#090909"/><stop offset="0.04"/><stop offset="0.08" stop-color="#050505"/><stop offset="0.13" stop-color="#131313"/><stop offset="0.18" stop-color="#2b2b2b"/><stop offset="0.24" stop-color="#4d4d4d"/><stop offset="0.29" stop-color="#787878"/><stop offset="0.35" stop-color="#adadad"/><stop offset="0.41" stop-color="#eaeaea"/><stop offset="0.43" stop-color="#fff"/></linearGradient><linearGradient id="linear-gradient-6" x1="514.5" y1="244.85" x2="514.5" y2="322.01" gradientUnits="userSpaceOnUse"><stop offset="0" stop-color="#f4f4f4"/><stop offset="1" stop-color="#202020"/></linearGradient><linearGradient id="linear-gradient-7" x1="514.5" y1="247.42" x2="514.5" y2="319.44" xlink:href="#linear-gradient-6"/><linearGradient id="linear-gradient-8" x1="514.5" y1="322.01" x2="514.5" y2="399.18" xlink:href="#linear-gradient-6"/><linearGradient id="linear-gradient-9" x1="514.5" y1="324.59" x2="514.5" y2="396.61" xlink:href="#linear-gradient-6"/><linearGradient id="linear-gradient-10" x1="514.5" y1="707.84" x2="514.5" y2="785.01" xlink:href="#linear-gradient-6"/><linearGradient id="linear-gradient-11" x1="514.5" y1="710.42" x2="514.5" y2="782.44" xlink:href="#linear-gradient-6"/><linearGradient id="linear-gradient-12" x1="514.5" y1="630.68" x2="514.5" y2="707.84" xlink:href="#linear-gradient-6"/><linearGradient id="linear-gradient-13" x1="514.5" y1="633.25" x2="514.5" y2="705.27" xlink:href="#linear-gradient-6"/><clipPath id="clip-path"><path id="SVGID" class="cls-1" d="M262.43,576.66H249.57a10.26,10.26,0,0,1-10.26-10h0V463.17h0a10.26,10.26,0,0,1,10.26-10h12.86a5.15,5.15,0,0,0,0-10.29H241.85a15.43,15.43,0,0,0-15.43,15.43h0V571.52A15.43,15.43,0,0,0,241.85,587h20.58a5.15,5.15,0,0,0,0-10.29Z"/></clipPath><linearGradient id="linear-gradient-14" x1="304.89" y1="748.71" x2="320.66" y2="761.94" gradientUnits="userSpaceOnUse"><stop offset="0" stop-color="#414141"/><stop offset="0.02" stop-color="#595959"/><stop offset="0.05" stop-color="gray"/><stop offset="0.08" stop-color="#a2a2a2"/><stop offset="0.12" stop-color="#bebebe"/><stop offset="0.15" stop-color="#d3d3d3"/><stop offset="0.2" stop-color="#e2e2e2"/><stop offset="0.24" stop-color="#ebebeb"/><stop offset="0.32" stop-color="#eee"/><stop offset="0.33" stop-color="#e9e9e9"/><stop offset="0.51" stop-color="#adadad"/><stop offset="0.67" stop-color="#7f7f7f"/><stop offset="0.81" stop-color="#5d5d5d"/><stop offset="0.92" stop-color="#484848"/><stop offset="1" stop-color="#414141"/></linearGradient><linearGradient id="linear-gradient-15" x1="418.99" y1="612.75" x2="434.75" y2="625.98" xlink:href="#linear-gradient-14"/><linearGradient id="linear-gradient-16" x1="320.66" y1="267.91" x2="304.9" y2="281.14" xlink:href="#linear-gradient-14"/><linearGradient id="linear-gradient-17" x1="434.75" y1="403.88" x2="418.98" y2="417.11" xlink:href="#linear-gradient-14"/><linearGradient id="linear-gradient-18" x1="514.51" y1="437.77" x2="514.51" y2="592.1" gradientUnits="userSpaceOnUse"><stop offset="0" stop-color="#eee"/><stop offset="0.1" stop-color="#e5e5e5"/><stop offset="0.27" stop-color="#ccc"/><stop offset="0.48" stop-color="#a3a3a3"/><stop offset="0.73" stop-color="#6a6a6a"/><stop offset="1" stop-color="#242424"/></linearGradient><radialGradient id="radial-gradient-7" cx="514.5" cy="513.3" r="84.88" gradientUnits="userSpaceOnUse"><stop offset="0.85" stop-color="#414141"/><stop offset="0.94" stop-color="#eee"/><stop offset="0.95" stop-color="#e5e5e5"/><stop offset="0.96" stop-color="#ccc"/><stop offset="0.97" stop-color="#a3a3a3"/><stop offset="0.99" stop-color="#6b6b6b"/><stop offset="1" stop-color="#414141"/></radialGradient></defs><g class="cls-2"><g id="Layer_1" data-name="Layer 1"><circle class="cls-3" cx="512" cy="512" r="487"/><rect class="cls-4" x="494.33" y="44.1" width="36.05" height="92.59"/><rect class="cls-4" x="385.2" y="58.37" width="36.05" height="92.59" transform="translate(-13.35 107.93) rotate(-15)"/><rect class="cls-4" x="283.48" y="100.41" width="36.05" height="92.59" transform="translate(-32.96 170.41) rotate(-30)"/><rect class="cls-4" x="196.11" y="167.33" width="36.05" height="92.59" transform="translate(-88.34 213.98) rotate(-45)"/><rect class="cls-4" x="129.03" y="254.6" width="36.05" height="92.59" transform="translate(-187.05 277.8) rotate(-60)"/><rect class="cls-4" x="86.83" y="356.24" width="36.05" height="92.59" transform="translate(-311.11 399.63) rotate(-75)"/><rect class="cls-4" x="72.37" y="465.35" width="36.05" height="92.59" transform="translate(-421.25 602.04) rotate(-90)"/><rect class="cls-4" x="86.64" y="574.48" width="36.05" height="92.59" transform="translate(-467.87 882.55) rotate(-105)"/><rect class="cls-4" x="128.68" y="676.2" width="36.05" height="92.59" transform="translate(-405.65 1210.79) rotate(-120)"/><rect class="cls-4" x="195.61" y="763.58" width="36.05" height="92.59" transform="translate(-207.98 1533.59) rotate(-135)"/><rect class="cls-4" x="282.87" y="830.65" width="36.05" height="92.59" transform="translate(123 1786.85) rotate(-150)"/><rect class="cls-4" x="384.52" y="872.85" width="36.05" height="92.59" transform="translate(553.47 1911.16) rotate(-165)"/><rect class="cls-4" x="493.62" y="887.31" width="36.05" height="92.59" transform="translate(1023.29 1867.21) rotate(-180)"/><rect class="cls-4" x="602.76" y="873.04" width="36.05" height="92.59" transform="translate(1458.35 1646.67) rotate(165)"/><rect class="cls-4" x="704.47" y="831" width="36.05" height="92.59" transform="translate(1786.85 1275.81) rotate(150)"/><rect class="cls-4" x="791.85" y="764.08" width="36.05" height="92.59" transform="translate(1955.55 810.72) rotate(135)"/><rect class="cls-4" x="858.92" y="676.81" width="36.05" height="92.59" transform="translate(1941.65 325.21) rotate(120)"/><rect class="cls-4" x="901.13" y="575.17" width="36.05" height="92.59" transform="translate(1757.33 -105.52) rotate(105)"/><rect class="cls-4" x="915.58" y="466.06" width="36.05" height="92.59" transform="translate(1445.96 -421.25) rotate(90)"/><rect class="cls-4" x="901.31" y="356.93" width="36.05" height="92.59" transform="translate(1070.87 -589.15) rotate(75)"/><rect class="cls-4" x="859.28" y="255.21" width="36.05" height="92.59" transform="translate(699.76 -609.01) rotate(60)"/><rect class="cls-4" x="792.35" y="167.83" width="36.05" height="92.59" transform="translate(388.76 -510.3) rotate(45)"/><rect class="cls-4" x="705.09" y="100.76" width="36.05" height="92.59" transform="translate(170.41 -341.85) rotate(30)"/><rect class="cls-4" x="603.44" y="58.56" width="36.05" height="92.59" transform="matrix(0.97, 0.26, -0.26, 0.97, 48.31, -157.27)"/><circle class="cls-3" cx="512" cy="512" r="407.2"/><path class="cls-5" d="M514.5,129.33c-212.95,0-385.6,172.64-385.6,385.59S301.55,900.53,514.5,900.53,900.1,727.88,900.1,514.92,727.47,129.33,514.5,129.33Zm0,658.74c-150.86,0-273.14-122.29-273.14-273.14S363.64,241.78,514.5,241.78,787.65,364.07,787.65,514.93,665.36,788.07,514.5,788.07Z"/><path class="cls-6" d="M514.5,129.33c-212.95,0-385.6,172.64-385.6,385.59S301.55,900.53,514.5,900.53,900.1,727.88,900.1,514.92,727.47,129.33,514.5,129.33Zm0,658.74c-150.86,0-273.14-122.29-273.14-273.14S363.64,241.78,514.5,241.78,787.65,364.07,787.65,514.93,665.36,788.07,514.5,788.07Z"/><circle class="cls-7" cx="514.5" cy="514.93" r="313.81" transform="translate(-213.42 514.63) rotate(-45)"/><circle class="cls-8" cx="514.5" cy="514.93" r="308.66" transform="translate(-213.42 514.63) rotate(-45)"/><path class="cls-1" d="M427.05,553.51a18,18,0,1,1-18-18A18,18,0,0,1,427.05,553.51Z"/><path class="cls-1" d="M420.68,553.59A11.64,11.64,0,1,1,409,542,11.64,11.64,0,0,1,420.68,553.59Z"/><rect class="cls-9" x="408.59" y="536.41" width="0.9" height="3.6"/><polygon class="cls-9" points="405.98 540.35 405.11 540.59 404.18 537.1 405.05 536.87 405.98 540.35"/><rect class="cls-9" x="400.94" y="538.46" width="0.9" height="3.6" transform="translate(-216.2 272.71) rotate(-29.97)"/><polygon class="cls-9" points="399.81 543.64 399.18 544.28 396.63 541.74 397.26 541.1 399.81 543.64"/><rect class="cls-9" x="395.34" y="544.06" width="0.9" height="3.6" transform="translate(-274.85 615.61) rotate(-59.99)"/><polygon class="cls-9" points="396.11 549.59 395.88 550.46 392.41 549.52 392.64 548.66 396.11 549.59"/><polygon class="cls-9" points="395.54 553.07 395.54 553.97 391.94 553.96 391.94 553.07 395.54 553.07"/><polygon class="cls-9" points="395.89 556.58 396.11 557.45 392.64 558.38 392.41 557.51 395.89 556.58"/><polygon class="cls-9" points="397.13 559.88 397.57 560.67 394.45 562.47 394.01 561.68 397.13 559.88"/><rect class="cls-9" x="396.42" y="563.89" width="3.6" height="0.9" transform="translate(-281.65 442.56) rotate(-44.64)"/><polygon class="cls-9" points="401.9 564.99 402.68 565.44 400.88 568.56 400.11 568.1 401.9 564.99"/><polygon class="cls-9" points="405.12 566.44 405.98 566.68 405.05 570.16 404.19 569.92 405.12 566.44"/><polygon class="cls-9" points="408.6 567.01 409.5 567.03 409.5 570.62 408.59 570.62 408.6 567.01"/><polygon class="cls-9" points="412.11 566.67 412.98 566.45 413.91 569.92 413.04 570.15 412.11 566.67"/><polygon class="cls-9" points="415.41 565.43 416.2 564.99 417.99 568.11 417.21 568.55 415.41 565.43"/><polygon class="cls-9" points="418.28 563.37 418.92 562.75 421.46 565.29 420.82 565.93 418.28 563.37"/><polygon class="cls-9" points="420.51 560.65 420.97 559.88 424.09 561.67 423.64 562.45 420.51 560.65"/><polygon class="cls-9" points="421.97 557.43 422.21 556.57 425.69 557.5 425.45 558.38 421.97 557.43"/><polygon class="cls-9" points="422.55 553.95 422.56 553.06 426.15 553.06 426.15 553.96 422.55 553.95"/><polygon class="cls-9" points="422.2 550.44 421.98 549.57 425.45 548.64 425.68 549.52 422.2 550.44"/><polygon class="cls-9" points="420.95 547.14 420.52 546.36 423.64 544.57 424.08 545.34 420.95 547.14"/><polygon class="cls-9" points="418.9 544.28 418.28 543.63 420.82 541.09 421.46 541.74 418.9 544.28"/><polygon class="cls-9" points="416.17 542.04 415.41 541.58 417.21 538.47 417.99 538.92 416.17 542.04"/><polygon class="cls-9" points="412.96 540.59 412.1 540.34 413.04 536.87 413.9 537.1 412.96 540.59"/><path class="cls-9" d="M417.78,558.75a10.15,10.15,0,1,1-7.65-15.17l6.06-2.38.9,6.34A10.16,10.16,0,0,1,417.78,558.75Z"/><path class="cls-10" d="M415,553.59a5.94,5.94,0,1,1-5.94-6A5.94,5.94,0,0,1,415,553.59Z"/><path class="cls-1" d="M427.05,471.2a18,18,0,1,1-18-18A18,18,0,0,1,427.05,471.2Z"/><path class="cls-1" d="M420.68,471.28A11.64,11.64,0,1,1,409,459.63,11.64,11.64,0,0,1,420.68,471.28Z"/><rect class="cls-9" x="408.59" y="454.1" width="0.9" height="3.6"/><rect class="cls-9" x="404.63" y="454.62" width="0.9" height="3.6" transform="matrix(0.97, -0.26, 0.26, 0.97, -104.82, 121.15)"/><rect class="cls-9" x="400.94" y="456.15" width="0.9" height="3.6" transform="translate(-175.59 263.21) rotate(-30.11)"/><rect class="cls-9" x="397.77" y="458.58" width="0.9" height="3.6" transform="translate(-208.97 417.28) rotate(-45.08)"/><polygon class="cls-9" points="397.57 464.06 397.12 464.84 394.01 463.04 394.45 462.26 397.57 464.06"/><polygon class="cls-9" points="396.11 467.28 395.88 468.15 392.41 467.21 392.64 466.35 396.11 467.28"/><polygon class="cls-9" points="395.54 470.76 395.54 471.66 391.94 471.66 391.94 470.76 395.54 470.76"/><polygon class="cls-9" points="395.89 474.27 396.11 475.14 392.64 476.07 392.41 475.2 395.89 474.27"/><rect class="cls-9" x="393.99" y="478.41" width="3.6" height="0.9" transform="translate(-184.39 256.72) rotate(-29.47)"/><polygon class="cls-9" points="399.18 480.44 399.81 481.08 397.27 483.62 396.63 482.98 399.18 480.44"/><polygon class="cls-9" points="401.9 482.68 402.68 483.13 400.88 486.25 400.11 485.79 401.9 482.68"/><polygon class="cls-9" points="405.12 484.13 405.98 484.37 405.05 487.85 404.19 487.61 405.12 484.13"/><polygon class="cls-9" points="408.6 484.71 409.5 484.72 409.5 488.31 408.59 488.31 408.6 484.71"/><polygon class="cls-9" points="412.11 484.36 412.98 484.14 413.91 487.61 413.04 487.84 412.11 484.36"/><polygon class="cls-9" points="415.41 483.12 416.2 482.68 417.99 485.8 417.21 486.24 415.41 483.12"/><polygon class="cls-9" points="418.28 481.06 418.92 480.44 421.46 482.98 420.82 483.62 418.28 481.06"/><polygon class="cls-9" points="420.51 478.34 420.97 477.57 424.09 479.37 423.64 480.14 420.51 478.34"/><polygon class="cls-9" points="421.97 475.12 422.21 474.26 425.69 475.19 425.45 476.06 421.97 475.12"/><polygon class="cls-9" points="422.55 471.64 422.56 470.75 426.15 470.75 426.15 471.65 422.55 471.64"/><polygon class="cls-9" points="422.2 468.13 421.98 467.26 425.45 466.33 425.68 467.21 422.2 468.13"/><polygon class="cls-9" points="420.95 464.83 420.52 464.05 423.64 462.25 424.08 463.04 420.95 464.83"/><polygon class="cls-9" points="418.9 461.97 418.28 461.33 420.82 458.78 421.46 459.42 418.9 461.97"/><polygon class="cls-9" points="416.17 459.73 415.41 459.27 417.21 456.16 417.99 456.61 416.17 459.73"/><polygon class="cls-9" points="412.96 458.27 412.1 458.03 413.04 454.56 413.9 454.79 412.96 458.27"/><path class="cls-9" d="M417.88,466.29a10.15,10.15,0,1,1-17-1l1-6.44,5.95,2.39A10.16,10.16,0,0,1,417.88,466.29Z"/><path class="cls-10" d="M415,471.28a5.94,5.94,0,1,1-5.94-5.94A5.94,5.94,0,0,1,415,471.28Z"/><path class="cls-9" d="M522.22,224.27a7.72,7.72,0,1,1-7.72-7.71A7.72,7.72,0,0,1,522.22,224.27Z"/><path class="cls-9" d="M422.34,239.16a7.72,7.72,0,1,1-9.89-4.61A7.7,7.7,0,0,1,422.34,239.16Z"/><path class="cls-11" d="M333.59,287.32a7.72,7.72,0,1,1-10.88-.95A7.71,7.71,0,0,1,333.59,287.32Z"/><path class="cls-9" d="M266.65,362.92a7.72,7.72,0,1,1-10.54,2.83A7.71,7.71,0,0,1,266.65,362.92Z"/><path class="cls-9" d="M229.61,456.86a7.72,7.72,0,1,1-8.94,6.26A7.71,7.71,0,0,1,229.61,456.86Z"/><path class="cls-9" d="M226.93,557.8a7.72,7.72,0,1,1-6.26,8.94A7.72,7.72,0,0,1,226.93,557.8Z"/><path class="cls-9" d="M258.94,653.57a7.72,7.72,0,1,1-2.82,10.55A7.71,7.71,0,0,1,258.94,653.57Z"/><path class="cls-12" d="M321.77,732.62a7.72,7.72,0,1,1,1,10.87A7.72,7.72,0,0,1,321.77,732.62Z"/><path class="cls-9" d="M407.86,785.41a7.71,7.71,0,1,1,4.61,9.89A7.71,7.71,0,0,1,407.86,785.41Z"/><path class="cls-9" d="M506.8,805.58a7.72,7.72,0,1,1,7.72,7.71A7.72,7.72,0,0,1,506.8,805.58Z"/><path class="cls-9" d="M606.67,790.68a7.72,7.72,0,1,1,9.9,4.61A7.71,7.71,0,0,1,606.67,790.68Z"/><path class="cls-13" d="M695.43,742.53a7.72,7.72,0,1,1,10.88,1A7.71,7.71,0,0,1,695.43,742.53Z"/><path class="cls-14" d="M762.37,666.92a7.71,7.71,0,1,1,10.54-2.82A7.71,7.71,0,0,1,762.37,666.92Z"/><path class="cls-9" d="M799.41,573a7.71,7.71,0,1,1,8.93-6.26A7.71,7.71,0,0,1,799.41,573Z"/><path class="cls-9" d="M802.08,472a7.72,7.72,0,1,1,6.26-8.94A7.71,7.71,0,0,1,802.08,472Z"/><path class="cls-15" d="M770.08,376.27a7.72,7.72,0,1,1,2.82-10.54A7.72,7.72,0,0,1,770.08,376.27Z"/><path class="cls-16" d="M707.24,297.22a7.72,7.72,0,1,1-1-10.87A7.71,7.71,0,0,1,707.24,297.22Z"/><path class="cls-9" d="M621.17,244.43a7.72,7.72,0,1,1-4.62-9.88A7.73,7.73,0,0,1,621.17,244.43Z"/><rect class="cls-17" x="445.05" y="633.25" width="138.9" height="72.02" rx="2.57"/><rect class="cls-18" x="447.11" y="635.31" width="134.78" height="67.9" rx="0.51"/><path class="cls-9" d="M555.66,648.68a5.15,5.15,0,1,1-5.15-5.14A5.15,5.15,0,0,1,555.66,648.68Z"/><path class="cls-9" d="M555.66,669.26a5.15,5.15,0,1,1-5.15-5.14A5.14,5.14,0,0,1,555.66,669.26Z"/><path class="cls-9" d="M576.23,689.84a5.15,5.15,0,1,1-5.14-5.15A5.14,5.14,0,0,1,576.23,689.84Z"/><path class="cls-9" d="M576.23,669.26a5.15,5.15,0,1,1-5.14-5.14A5.14,5.14,0,0,1,576.23,669.26Z"/><path class="cls-9" d="M576.23,648.68a5.15,5.15,0,1,1-5.14-5.14A5.14,5.14,0,0,1,576.23,648.68Z"/><path class="cls-9" d="M555.66,689.84a5.15,5.15,0,1,1-5.15-5.15A5.14,5.14,0,0,1,555.66,689.84Z"/><path class="cls-9" d="M463.06,648.68a5.15,5.15,0,1,1-5.15-5.14A5.15,5.15,0,0,1,463.06,648.68Z"/><path class="cls-9" d="M463.06,669.26a5.15,5.15,0,1,1-5.14-5.14A5.14,5.14,0,0,1,463.06,669.26Z"/><path class="cls-9" d="M483.64,689.84a5.15,5.15,0,1,1-5.15-5.15A5.15,5.15,0,0,1,483.64,689.84Z"/><path class="cls-9" d="M483.64,669.26a5.15,5.15,0,1,1-5.15-5.14A5.15,5.15,0,0,1,483.64,669.26Z"/><path class="cls-9" d="M483.64,648.68a5.15,5.15,0,1,1-5.15-5.14A5.15,5.15,0,0,1,483.64,648.68Z"/><path class="cls-9" d="M463.06,689.84a5.15,5.15,0,1,1-5.14-5.15A5.14,5.14,0,0,1,463.06,689.84Z"/><rect class="cls-17" x="445.05" y="324.59" width="138.9" height="72.02" rx="2.57"/><rect class="cls-18" x="447.11" y="326.64" width="134.78" height="67.91" rx="0.51"/><path class="cls-9" d="M555.66,340a5.15,5.15,0,1,1-5.15-5.15A5.15,5.15,0,0,1,555.66,340Z"/><path class="cls-9" d="M555.66,360.6a5.15,5.15,0,1,1-5.15-5.15A5.14,5.14,0,0,1,555.66,360.6Z"/><path class="cls-9" d="M576.23,381.17a5.15,5.15,0,1,1-5.14-5.14A5.14,5.14,0,0,1,576.23,381.17Z"/><path class="cls-9" d="M576.23,360.6a5.15,5.15,0,1,1-5.14-5.15A5.14,5.14,0,0,1,576.23,360.6Z"/><path class="cls-9" d="M576.23,340a5.15,5.15,0,1,1-5.14-5.15A5.14,5.14,0,0,1,576.23,340Z"/><path class="cls-9" d="M555.66,381.17a5.15,5.15,0,1,1-5.15-5.14A5.14,5.14,0,0,1,555.66,381.17Z"/><path class="cls-9" d="M463.06,340a5.15,5.15,0,1,1-5.15-5.15A5.15,5.15,0,0,1,463.06,340Z"/><path class="cls-9" d="M463.06,360.6a5.15,5.15,0,1,1-5.14-5.15A5.14,5.14,0,0,1,463.06,360.6Z"/><path class="cls-9" d="M483.64,381.17a5.15,5.15,0,1,1-5.15-5.14A5.15,5.15,0,0,1,483.64,381.17Z"/><path class="cls-9" d="M483.64,360.6a5.15,5.15,0,1,1-5.15-5.15A5.15,5.15,0,0,1,483.64,360.6Z"/><path class="cls-9" d="M483.64,340a5.15,5.15,0,1,1-5.15-5.15A5.15,5.15,0,0,1,483.64,340Z"/><path class="cls-9" d="M463.06,381.17a5.15,5.15,0,1,1-5.14-5.14A5.14,5.14,0,0,1,463.06,381.17Z"/><path class="cls-19" d="M784.58,648.68h13.84A314.7,314.7,0,0,1,660.55,792.73H535.08l-2.57,2.57h-2.58c0,1.44-6.89,2.57-15.43,2.57s-15.43-1.13-15.43-2.57H496.5l-2.58-2.57v-72l2.58-2.58h36l2.57,2.58H635.4a7.29,7.29,0,0,0,4.37-1.8l6.69-6.7a7.24,7.24,0,0,0,1.8-4.37V342.59a7.15,7.15,0,0,0-1.8-4.37l-6.69-6.69a7.29,7.29,0,0,0-4.37-1.8H522.22a2.61,2.61,0,0,1-2.57-2.57V260.28a2.61,2.61,0,0,1,2.57-2.57h172a314.48,314.48,0,0,1,113,144H784.58a7.27,7.27,0,0,0-4.37,1.8l-6.69,6.69a7.21,7.21,0,0,0-1.8,4.37V635.82a7.18,7.18,0,0,0,1.8,4.37l6.69,6.69A7.21,7.21,0,0,0,784.58,648.68Z"/><path class="cls-19" d="M532.5,332.3h-36l-3.86,2.57v72l3.86,2.57h2.57c0,1.42,6.91,2.57,15.43,2.57s15.43-1.15,15.43-2.57h2.57l3.86-2.57v-72Z"/><path class="cls-20" d="M833.45,723.28a2.58,2.58,0,0,1-2.57,2.57H769.15a7.14,7.14,0,0,0-4.39,1.82l-53,53a7.25,7.25,0,0,1-4.39,1.82H517.07a2.58,2.58,0,0,1-2.57-2.58V713a2.58,2.58,0,0,1,2.57-2.57H630.25a7.23,7.23,0,0,0,4.39-1.82l6.65-6.65a7.2,7.2,0,0,0,1.82-4.4V332.3a7.17,7.17,0,0,0-1.82-4.39l-6.65-6.65a7.14,7.14,0,0,0-4.39-1.82H517.07a2.58,2.58,0,0,1-2.57-2.57V250a2.58,2.58,0,0,1,2.57-2.58H707.42a7.17,7.17,0,0,1,4.39,1.82l53,52.95a7.14,7.14,0,0,0,4.39,1.82h61.73a2.58,2.58,0,0,1,2.57,2.57v82.31a2.57,2.57,0,0,1-2.57,2.57H779.44a7.14,7.14,0,0,0-4.39,1.82l-6.65,6.65a7.17,7.17,0,0,0-1.82,4.39V625.53a7.14,7.14,0,0,0,1.82,4.39l6.65,6.66a7.13,7.13,0,0,0,4.39,1.81h51.44a2.58,2.58,0,0,1,2.57,2.58Z"/><path class="cls-21" d="M833.45,723.28a2.58,2.58,0,0,1-2.57,2.57H769.15a7.14,7.14,0,0,0-4.39,1.82l-53,53a7.25,7.25,0,0,1-4.39,1.82H517.07a2.58,2.58,0,0,1-2.57-2.58V713a2.58,2.58,0,0,1,2.57-2.57H630.25a7.23,7.23,0,0,0,4.39-1.82l6.65-6.65a7.2,7.2,0,0,0,1.82-4.4V332.3a7.17,7.17,0,0,0-1.82-4.39l-6.65-6.65a7.14,7.14,0,0,0-4.39-1.82H517.07a2.58,2.58,0,0,1-2.57-2.57V250a2.58,2.58,0,0,1,2.57-2.58H707.42a7.17,7.17,0,0,1,4.39,1.82l53,52.95a7.14,7.14,0,0,0,4.39,1.82h61.73a2.58,2.58,0,0,1,2.57,2.57v82.31a2.57,2.57,0,0,1-2.57,2.57H779.44a7.14,7.14,0,0,0-4.39,1.82l-6.65,6.65a7.17,7.17,0,0,0-1.82,4.39V625.53a7.14,7.14,0,0,0,1.82,4.39l6.65,6.66a7.13,7.13,0,0,0,4.39,1.81h51.44a2.58,2.58,0,0,1,2.57,2.58Z"/><path class="cls-17" d="M833.45,723.28a2.58,2.58,0,0,1-2.57,2.57H769.15a7.14,7.14,0,0,0-4.39,1.82l-53,53a7.25,7.25,0,0,1-4.39,1.82H517.07a2.58,2.58,0,0,1-2.57-2.58V713a2.58,2.58,0,0,1,2.57-2.57H630.25a7.23,7.23,0,0,0,4.39-1.82l6.65-6.65a7.2,7.2,0,0,0,1.82-4.4V332.3a7.17,7.17,0,0,0-1.82-4.39l-6.65-6.65a7.14,7.14,0,0,0-4.39-1.82H517.07a2.58,2.58,0,0,1-2.57-2.57V250a2.58,2.58,0,0,1,2.57-2.58H707.42a7.17,7.17,0,0,1,4.39,1.82l53,52.95a7.14,7.14,0,0,0,4.39,1.82h61.73a2.58,2.58,0,0,1,2.57,2.57v82.31a2.57,2.57,0,0,1-2.57,2.57H779.44a7.14,7.14,0,0,0-4.39,1.82l-6.65,6.65a7.17,7.17,0,0,0-1.82,4.39V625.53a7.14,7.14,0,0,0,1.82,4.39l6.65,6.66a7.13,7.13,0,0,0,4.39,1.81h51.44a2.58,2.58,0,0,1,2.57,2.58Z"/><path class="cls-18" d="M517.59,713.5H630.25a10.24,10.24,0,0,0,6.57-2.72l6.65-6.66a10.14,10.14,0,0,0,2.72-6.57V332.3a10.16,10.16,0,0,0-2.72-6.57l-6.65-6.65a10.2,10.2,0,0,0-6.57-2.73H517.59V250.51H707.42a4.29,4.29,0,0,1,2.21.91l53,53a10.24,10.24,0,0,0,6.57,2.72h61.22v81.28H779.44a10.16,10.16,0,0,0-6.57,2.72l-6.66,6.65a10.24,10.24,0,0,0-2.72,6.57V625.53a10.22,10.22,0,0,0,2.72,6.57l6.66,6.66a10.22,10.22,0,0,0,6.57,2.72h50.93v81.28H769.15a10.2,10.2,0,0,0-6.57,2.73l-53,52.94a4.23,4.23,0,0,1-2.2.92H517.59Z"/><path class="cls-9" d="M529.93,399.18c0,1.42-6.91,2.57-15.43,2.57s-15.43-1.15-15.43-2.57,6.91-2.57,15.43-2.57S529.93,397.76,529.93,399.18Z"/><path class="cls-9" d="M529.93,244.85c0,1.42-6.91,2.57-15.43,2.57s-15.43-1.15-15.43-2.57,6.91-2.57,15.43-2.57S529.93,243.43,529.93,244.85Z"/><polygon class="cls-22" points="535.08 319.44 532.5 322.01 496.5 322.01 493.92 319.44 493.92 247.42 496.5 244.85 532.5 244.85 535.08 247.42 535.08 319.44"/><polygon class="cls-9" points="535.08 319.44 532.5 322.01 496.5 322.01 493.92 319.44 493.92 247.42 496.5 244.85 532.5 244.85 535.08 247.42 535.08 319.44"/><rect class="cls-23" x="493.92" y="247.42" width="41.16" height="72.02"/><rect class="cls-18" x="493.92" y="247.42" width="41.16" height="72.02"/><polygon class="cls-24" points="536.36 396.61 532.5 399.18 496.5 399.18 492.64 396.61 492.64 324.59 496.5 322.01 532.5 322.01 536.36 324.59 536.36 396.61"/><polygon class="cls-18" points="536.36 396.61 532.5 399.18 496.5 399.18 492.64 396.61 492.64 324.59 496.5 322.01 532.5 322.01 536.36 324.59 536.36 396.61"/><rect class="cls-25" x="492.64" y="324.59" width="43.73" height="72.02"/><rect class="cls-9" x="492.64" y="324.59" width="43.73" height="72.02"/><path class="cls-9" d="M529.93,630.68c0,1.42-6.91,2.57-15.43,2.57s-15.43-1.15-15.43-2.57,6.91-2.57,15.43-2.57S529.93,629.26,529.93,630.68Z"/><path class="cls-9" d="M529.93,785c0,1.42-6.91,2.57-15.43,2.57s-15.43-1.15-15.43-2.57,6.91-2.57,15.43-2.57S529.93,783.59,529.93,785Z"/><polygon class="cls-26" points="535.08 782.44 532.5 785.01 496.5 785.01 493.92 782.44 493.92 710.41 496.5 707.84 532.5 707.84 535.08 710.41 535.08 782.44"/><polygon class="cls-18" points="535.08 782.44 532.5 785.01 496.5 785.01 493.92 782.44 493.92 710.41 496.5 707.84 532.5 707.84 535.08 710.41 535.08 782.44"/><rect class="cls-27" x="493.92" y="710.42" width="41.16" height="72.02"/><rect class="cls-9" x="493.92" y="710.42" width="41.16" height="72.02"/><polygon class="cls-28" points="536.36 705.27 532.5 707.84 496.5 707.84 492.64 705.27 492.64 633.25 496.5 630.68 532.5 630.68 536.36 633.25 536.36 705.27"/><polygon class="cls-18" points="536.36 705.27 532.5 707.84 496.5 707.84 492.64 705.27 492.64 633.25 496.5 630.68 532.5 630.68 536.36 633.25 536.36 705.27"/><rect class="cls-29" x="492.64" y="633.25" width="43.73" height="72.02"/><rect class="cls-9" x="492.64" y="633.25" width="43.73" height="72.02"/><path class="cls-9" d="M270.14,448.05a7.72,7.72,0,1,1-7.71-7.71A7.72,7.72,0,0,1,270.14,448.05Z"/><path class="cls-9" d="M270.14,581.81a7.72,7.72,0,1,1-7.71-7.72A7.71,7.71,0,0,1,270.14,581.81Z"/><path class="cls-19" d="M262.43,576.66l-18,10.29a10.26,10.26,0,0,1-10.25-10h0V473.46h0a10.26,10.26,0,0,1,10.25-10h0l18-10.29a5.15,5.15,0,0,0,0-10.29L236.7,453.2h0a15.43,15.43,0,0,0-15.43,15.43h0V581.81a15.43,15.43,0,0,0,15.43,15.43L262.43,587a5.15,5.15,0,0,0,0-10.29Z"/><path id="SVGID-2" data-name="SVGID" class="cls-1" d="M262.43,576.66H249.57a10.26,10.26,0,0,1-10.26-10h0V463.17h0a10.26,10.26,0,0,1,10.26-10h12.86a5.15,5.15,0,0,0,0-10.29H241.85a15.43,15.43,0,0,0-15.43,15.43h0V571.52A15.43,15.43,0,0,0,241.85,587h20.58a5.15,5.15,0,0,0,0-10.29Z"/><g class="cls-30"><rect class="cls-1" x="226.41" y="442.9" width="41.15" height="144.05"/><path class="cls-1" d="M233.31,533.18c-4.49,0-8.14-22.25-8.14-49.69s3.65-49.7,8.14-49.7,8.14,22.25,8.14,49.7S237.8,533.18,233.31,533.18Z"/><path class="cls-1" d="M233.31,531.11c-4.31,0-7.8-21.32-7.8-47.62s3.49-47.63,7.8-47.63,7.8,21.32,7.8,47.63S237.62,531.11,233.31,531.11Z"/><path class="cls-1" d="M233.31,529c-4.12,0-7.46-20.4-7.46-45.55s3.34-45.56,7.46-45.56,7.46,20.4,7.46,45.56S237.43,529,233.31,529Z"/><path class="cls-1" d="M233.31,527c-3.93,0-7.12-19.47-7.12-43.48S229.38,440,233.31,440s7.12,19.47,7.12,43.49S237.25,527,233.31,527Z"/><path class="cls-1" d="M233.31,524.89c-3.75,0-6.79-18.53-6.79-41.4s3-41.42,6.79-41.42,6.78,18.54,6.78,41.42S237.05,524.89,233.31,524.89Z"/><path class="cls-1" d="M233.31,522.83c-3.56,0-6.44-17.62-6.44-39.34s2.88-39.35,6.44-39.35,6.44,17.62,6.44,39.35S236.87,522.83,233.31,522.83Z"/><path class="cls-1" d="M233.31,520.76c-3.37,0-6.11-16.69-6.11-37.27s2.74-37.28,6.11-37.28,6.1,16.69,6.1,37.28S236.68,520.76,233.31,520.76Z"/><path class="cls-1" d="M233.31,518.69c-3.18,0-5.76-15.77-5.76-35.2s2.58-35.2,5.76-35.2,5.76,15.75,5.76,35.2S236.49,518.69,233.31,518.69Z"/><path class="cls-1" d="M233.31,516.62c-3,0-5.43-14.83-5.43-33.13s2.43-33.13,5.43-33.13,5.42,14.83,5.42,33.13S236.3,516.62,233.31,516.62Z"/><path class="cls-1" d="M233.31,514.54c-2.81,0-5.09-13.9-5.09-31s2.28-31.07,5.09-31.07,5.09,13.91,5.09,31.07S236.12,514.54,233.31,514.54Z"/><path class="cls-1" d="M233.31,512.47c-2.63,0-4.75-13-4.75-29s2.12-29,4.75-29,4.74,13,4.74,29S235.93,512.47,233.31,512.47Z"/><path class="cls-1" d="M233.31,510.41c-2.43,0-4.41-12.06-4.41-26.92s2-26.92,4.41-26.92,4.41,12,4.41,26.92S235.74,510.41,233.31,510.41Z"/><path class="cls-1" d="M233.31,508.33c-2.25,0-4.07-11.12-4.07-24.84s1.82-24.85,4.07-24.85,4.07,11.12,4.07,24.85S235.56,508.33,233.31,508.33Z"/><path class="cls-1" d="M233.31,506.26c-2.06,0-3.73-10.19-3.73-22.77s1.67-22.78,3.73-22.78,3.73,10.2,3.73,22.78S235.37,506.26,233.31,506.26Z"/><path class="cls-1" d="M233.31,504.19c-1.87,0-3.4-9.27-3.4-20.7s1.53-20.71,3.4-20.71,3.39,9.27,3.39,20.71S235.18,504.19,233.31,504.19Z"/><path class="cls-1" d="M233.31,502.12c-1.69,0-3.05-8.34-3.05-18.63s1.36-18.64,3.05-18.64,3.05,8.34,3.05,18.64S235,502.12,233.31,502.12Z"/><path class="cls-1" d="M233.31,500.05c-1.5,0-2.72-7.41-2.72-16.56s1.22-16.57,2.72-16.57,2.71,7.42,2.71,16.57S234.81,500.05,233.31,500.05Z"/><path class="cls-1" d="M233.31,498c-1.31,0-2.37-6.49-2.37-14.49S232,469,233.31,469s2.37,6.49,2.37,14.5S234.62,498,233.31,498Z"/><path class="cls-1" d="M233.31,495.91c-1.12,0-2-5.57-2-12.42s.92-12.43,2-12.43,2,5.56,2,12.43S234.43,495.91,233.31,495.91Z"/><path class="cls-1" d="M233.31,493.84c-.94,0-1.69-4.64-1.69-10.35s.75-10.36,1.69-10.36,1.7,4.64,1.7,10.36S234.25,493.84,233.31,493.84Z"/><path class="cls-1" d="M233.31,491.76c-.75,0-1.36-3.7-1.36-8.27s.61-8.29,1.36-8.29,1.35,3.71,1.35,8.29S234.06,491.76,233.31,491.76Z"/><path class="cls-1" d="M233.31,489.7c-.56,0-1-2.79-1-6.21s.46-6.21,1-6.21,1,2.78,1,6.21S233.87,489.7,233.31,489.7Z"/><path class="cls-1" d="M233.31,487.63c-.38,0-.68-1.86-.68-4.14s.3-4.15.68-4.15.68,1.86.68,4.15S233.68,487.63,233.31,487.63Z"/><path class="cls-1" d="M233.31,485.55c-.19,0-.34-.92-.34-2.06s.15-2.07.34-2.07.34.92.34,2.07S233.5,485.55,233.31,485.55Z"/></g><rect class="cls-9" x="790.24" y="476.86" width="24.69" height="76.14" rx="4.63"/><rect class="cls-31" x="792.3" y="478.91" width="20.58" height="72.02" rx="2.57"/><path class="cls-9" d="M807.73,489.2a5.15,5.15,0,1,1-5.14-5.14A5.14,5.14,0,0,1,807.73,489.2Z"/><path class="cls-9" d="M807.73,540.65a5.15,5.15,0,1,1-5.14-5.14A5.15,5.15,0,0,1,807.73,540.65Z"/><path class="cls-19" d="M828.31,514.93c0,6.89-.21,13.78-.72,20.58h-6.33c-.77,3.13-2,5.14-3.24,5.14H792.3v-5.14H504.21V514.93H792.3v-5.15H818c1.29,0,2.47,2,3.24,5.15Z"/><rect class="cls-9" x="833.45" y="461.43" width="40.13" height="107" rx="4.63"/><rect class="cls-31" x="835.51" y="463.48" width="36.01" height="102.89" rx="2.57"/><path class="cls-9" d="M866.38,476.35a5.15,5.15,0,1,1-5.15-5.15A5.15,5.15,0,0,1,866.38,476.35Z"/><path class="cls-9" d="M851,476.35a5.15,5.15,0,1,1-5.15-5.15A5.15,5.15,0,0,1,851,476.35Z"/><path class="cls-9" d="M866.38,553.51a5.15,5.15,0,1,1-5.15-5.14A5.16,5.16,0,0,1,866.38,553.51Z"/><path class="cls-9" d="M851,553.51a5.15,5.15,0,1,1-5.15-5.14A5.16,5.16,0,0,1,851,553.51Z"/><polygon class="cls-19" points="873.58 507.21 873.58 543.22 866.38 543.22 866.38 553.51 840.66 553.51 840.66 543.22 835.51 543.22 835.51 507.21 840.66 507.21 840.66 496.92 866.38 496.92 866.38 507.21 873.58 507.21"/><rect class="cls-32" x="840.66" y="486.63" width="25.72" height="10.29"/><rect class="cls-32" x="840.66" y="532.93" width="25.72" height="10.29"/><path class="cls-9" d="M876.67,496.92H835.51v36h41.16c2.42,0,4.4-8,4.4-18S879.09,496.92,876.67,496.92Z"/><path class="cls-32" d="M840.66,496.92h-7.21v36h7.21c2.42,0,4.39-8,4.39-18S843.08,496.92,840.66,496.92Z"/><path class="cls-33" d="M838.62,514.93c0-5.68-1.16-10.28-2.59-10.29H818v20.58h18C837.46,525.21,838.62,520.61,838.62,514.93Z"/><path class="cls-9" d="M818,499.5H792.3v30.86H818c2.43,0,4.4-7,4.4-15.48S820.45,499.5,818,499.5Z"/><path class="cls-32" d="M797.44,530.36c2.43,0,4.4-7,4.4-15.43s-2-15.44-4.4-15.44h-7.2v30.87Z"/><path class="cls-9" d="M797.44,514.92c0-5.67-1.16-10.27-2.59-10.28H504.21v20.58H794.85C796.28,525.21,797.44,520.61,797.44,514.92Z"/><path class="cls-9" d="M305.12,705.23a4.64,4.64,0,0,1,6.52-.57l51.23,43a4.64,4.64,0,0,1,.58,6.52L353.52,766a4.64,4.64,0,0,1-6.52.57l-51.23-43a4.64,4.64,0,0,1-.57-6.52Z"/><path class="cls-31" d="M297.09,722a2.59,2.59,0,0,1-.32-3.62l9.93-11.82a2.57,2.57,0,0,1,3.62-.32l51.23,43a2.59,2.59,0,0,1,.32,3.62L352,764.67a2.58,2.58,0,0,1-3.63.32Z"/><path class="cls-9" d="M345.72,756.09a5.14,5.14,0,1,1,7.25-.63A5.14,5.14,0,0,1,345.72,756.09Z"/><path class="cls-9" d="M306.31,723a5.14,5.14,0,1,1,7.25-.63A5.14,5.14,0,0,1,306.31,723Z"/><path class="cls-19" d="M346.33,746.79l1.44,1.13-16.56,19.7a2.24,2.24,0,0,1-2.06.52c-7.36-5.36-14.41-11.06-21.25-17.08-.72-1.44-.87-2.57-.31-3.25l16.52-19.7,6.48,5.41L513.22,515.86,529,529.08Z"/><path class="cls-9" d="M275.1,737a4.93,4.93,0,0,1,6.93-.78l54.9,46.06a5,5,0,0,1,.43,7l-19.29,23a5,5,0,0,1-6.94.79L256.24,767a5,5,0,0,1-.44-7Z"/><path class="cls-31" d="M257.56,765.4a2.91,2.91,0,0,1-.18-4.08l19.29-23a2.88,2.88,0,0,1,4-.53l54.89,46.05a2.9,2.9,0,0,1,.18,4.07l-19.29,23a2.89,2.89,0,0,1-4,.53Z"/><path class="cls-9" d="M319.91,790.85a5.15,5.15,0,1,1,7.24-.64A5.14,5.14,0,0,1,319.91,790.85Z"/><path class="cls-9" d="M310,802.67a5.14,5.14,0,1,1,7.25-.64A5.14,5.14,0,0,1,310,802.67Z"/><path class="cls-9" d="M276.56,754.47a5.14,5.14,0,1,1,7.25-.63A5.13,5.13,0,0,1,276.56,754.47Z"/><path class="cls-9" d="M266.64,766.29a5.15,5.15,0,1,1,7.25-.63A5.15,5.15,0,0,1,266.64,766.29Z"/><polygon class="cls-19" points="323.29 770.81 323.29 770.86 321.95 782.69 302.55 805.79 277.81 785.06 323.23 770.81 323.29 770.81"/><path class="cls-9" d="M282.18,791.79c7.62,6.39,15.05,10.06,16.62,8.2h0L322,772.41l-27.59-23.15-23.14,27.59h0C269.66,778.71,274.56,785.4,282.18,791.79Z"/><path class="cls-32" d="M318.64,776.35h0l4.64-5.52-27.6-23.15-4.62,5.52h0c-1.56,1.86,3.35,8.55,11,14.94S317.08,778.21,318.64,776.35Z"/><path class="cls-34" d="M306.15,763.22c4.35,3.64,8.63,5.71,9.56,4.62h0l11.57-13.79-15.77-13.23-11.57,13.8h0C299,755.72,301.8,759.56,306.15,763.22Z"/><path class="cls-33" d="M306.15,763.22c4.35,3.64,8.63,5.71,9.56,4.62h0l11.57-13.79-15.77-13.23-11.57,13.8h0C299,755.72,301.8,759.56,306.15,763.22Z"/><path class="cls-9" d="M331.22,757.36l16.53-19.71-23.64-19.84-16.53,19.7c-1.57,1.87,2.52,7.87,9,13.33S329.66,759.22,331.22,757.36Z"/><path class="cls-32" d="M320.8,721.76c-1.55,1.86,2.55,7.88,9,13.29s13.09,8.41,14.65,6.54h0l4.63-5.51-23.64-19.85-4.64,5.53Z"/><path class="cls-35" d="M332.63,731.68c4.35,3.64,8.62,5.71,9.55,4.62h0L529,513.66l-15.76-13.22L326.41,723.08h0C325.5,724.18,328.28,728,332.63,731.68Z"/><path class="cls-9" d="M332.63,731.68c4.35,3.64,8.62,5.71,9.55,4.62h0L529,513.66l-15.76-13.22L326.41,723.08h0C325.5,724.18,328.28,728,332.63,731.68Z"/><path class="cls-9" d="M363.44,275.68a4.65,4.65,0,0,1-.57,6.53l-51.23,43a4.64,4.64,0,0,1-6.52-.57L295.2,312.8a4.64,4.64,0,0,1,.57-6.52l51.23-43a4.64,4.64,0,0,1,6.52.57Z"/><path class="cls-31" d="M348.32,264.87a2.58,2.58,0,0,1,3.63.32L361.87,277a2.59,2.59,0,0,1-.32,3.62l-51.23,43a2.57,2.57,0,0,1-3.62-.32l-9.93-11.83a2.57,2.57,0,0,1,.32-3.61Z"/><path class="cls-9" d="M306.31,306.84a5.14,5.14,0,1,1-.64,7.24A5.16,5.16,0,0,1,306.31,306.84Z"/><path class="cls-9" d="M345.72,273.77a5.14,5.14,0,1,1-.63,7.24A5.14,5.14,0,0,1,345.72,273.77Z"/><path class="cls-19" d="M526.44,526.5l-15.8,13.23L325.5,319l-4,3.29L305,302.62c-.87-1,0-3.19,1.86-5.81l-8.13-9.67q7.41-7.11,15.38-13.69l8.49,10.13c2.93-1.38,5.19-1.79,6-.82l16.56,19.71-4,3.34Z"/><path class="cls-9" d="M337.36,240.6a5,5,0,0,1-.43,7L282,293.63a5,5,0,0,1-6.94-.79l-19.29-23a5,5,0,0,1,.44-7l54.89-46a4.94,4.94,0,0,1,6.94.78Z"/><path class="cls-31" d="M312.45,218.4a2.91,2.91,0,0,1,4.05.54l19.28,23a2.9,2.9,0,0,1-.18,4.07l-54.89,46.06a2.89,2.89,0,0,1-4-.53l-19.29-23a2.9,2.9,0,0,1,.18-4.07Z"/><path class="cls-9" d="M276.56,275.38a5.15,5.15,0,1,1-.63,7.25A5.14,5.14,0,0,1,276.56,275.38Z"/><path class="cls-9" d="M266.64,263.56a5.15,5.15,0,1,1-.63,7.25A5.14,5.14,0,0,1,266.64,263.56Z"/><path class="cls-9" d="M319.91,239a5.15,5.15,0,1,1-.63,7.25A5.14,5.14,0,0,1,319.91,239Z"/><path class="cls-9" d="M310,227.18a5.15,5.15,0,1,1-.63,7.25A5.15,5.15,0,0,1,310,227.18Z"/><path class="cls-19" d="M316.7,264.55,289.13,287.7l-20.48-24.38c-1.54-1.9,3.34-8.59,11-15,6.27-5.25,12.45-8.65,15.28-8.65a1.65,1.65,0,0,1,1.33.47Z"/><path class="cls-9" d="M282.18,238.07c-7.61,6.39-12.52,13.07-11,14.94h0l23.14,27.58L322,257.44,298.8,229.86h0C297.24,228,289.8,231.68,282.18,238.07Z"/><path class="cls-32" d="M291.05,276.65h0l4.63,5.52L323.27,259l-4.63-5.52h0c-1.56-1.86-9,1.81-16.62,8.21S289.49,274.79,291.05,276.65Z"/><path class="cls-36" d="M306.16,266.64c-4.35,3.65-7.13,7.49-6.21,8.59h0L311.52,289l15.76-13.23L315.71,262h0C314.78,260.91,310.51,263,306.16,266.64Z"/><path class="cls-33" d="M306.16,266.64c-4.35,3.65-7.13,7.49-6.21,8.59h0L311.52,289l15.76-13.23L315.71,262h0C314.78,260.91,310.51,263,306.16,266.64Z"/><path class="cls-9" d="M307.58,292.33,324.11,312l23.65-19.84-16.54-19.71c-1.56-1.86-8.18,1.13-14.69,6.59S306,290.48,307.58,292.33Z"/><path class="cls-32" d="M344.45,288.26c-1.56-1.86-8.2,1.14-14.65,6.55s-10.56,11.43-9,13.29h0l4.63,5.52,23.65-19.84-4.63-5.52Z"/><path class="cls-37" d="M332.62,298.18c-4.34,3.65-7.12,7.5-6.21,8.6h0L513.23,529.42,529,516.19,342.17,293.55h0C341.25,292.46,337,294.53,332.62,298.18Z"/><path class="cls-9" d="M332.62,298.18c-4.34,3.65-7.12,7.5-6.21,8.6h0L513.23,529.42,529,516.19,342.17,293.55h0C341.25,292.46,337,294.53,332.62,298.18Z"/><path class="cls-19" d="M514.5,445.48a83.92,83.92,0,0,0-37.5,8.75l8.59,10.23a74.13,74.13,0,0,1,19.34-5.4l4.43,4.43-2.42,26.44-1.49,16.41a26,26,0,0,0-7.15,4.22l-1.49-.73-37.66-17.38-1.6-6A72.84,72.84,0,0,1,468,475.52l-8.34-9.93A84.85,84.85,0,0,0,446,580.52l31.9-38L454,559.38l-6.13-1.65a71.94,71.94,0,0,1,0-54.69L454,501.4l35.18,24.79c-.15,1.09-.31,2.16-.36,3.3L501,514.93l12.2,14.51,8.54-7.16-23.41,27.94a28.15,28.15,0,0,0,7.1,4.17l3.91,42.85-4.43,4.42a71.35,71.35,0,0,1-36.37-16l-8.33,10A84.89,84.89,0,1,0,514.5,445.48Zm9.57,13.58a71.86,71.86,0,0,1,47.38,27.37l-1.6,6-39.14,18.11a26.2,26.2,0,0,0-7.16-4.22l-3.9-42.85Zm0,142.6-4.42-4.42,3.9-42.91a24.83,24.83,0,0,0,7.16-4.16l39.14,18.11,1.65,6A72,72,0,0,1,524.07,601.66ZM575,559.32l-35.19-24.79a21.41,21.41,0,0,0,0-8.34L575,501.4l6.12,1.6a72,72,0,0,1,0,54.73Z"/><path class="cls-19" d="M482.5,460.81,474,450.62a86.41,86.41,0,0,0-16.82,12l8.39,10A70.8,70.8,0,0,1,482.5,460.81ZM457.55,569.15l.93-3.5-10.39,12.4a81.86,81.86,0,0,0,14.71,14.46l8.39-9.93A70.26,70.26,0,0,1,457.55,569.15Z"/><path class="cls-19" d="M565.94,525.22a51.44,51.44,0,1,1-51.44-51.45A51.44,51.44,0,0,1,565.94,525.22Z"/><path class="cls-1" d="M565.94,514.93a51.44,51.44,0,1,1-51.44-51.44A51.44,51.44,0,0,1,565.94,514.93Z"/><circle class="cls-9" cx="514.5" cy="514.93" r="47.59" transform="matrix(0.16, -0.99, 0.99, 0.16, -75.65, 941.06)"/><path class="cls-38" d="M539.81,529.39l18.27,12.86a51.32,51.32,0,0,1-9.37,11.11l-18-8.34a24.63,24.63,0,0,1-7.16,4.17l-1.48,16.62a51.38,51.38,0,0,1-15.13,0l-1.49-16.57A26.65,26.65,0,0,1,498.3,545l-18,8.34a51,51,0,0,1-9.36-11.11l18.26-12.86a21.41,21.41,0,0,1,0-8.34l-24.85-17.49a49.76,49.76,0,0,1,4.27-11.88l29.69,13.73a26,26,0,0,1,7.15-4.22l3.39-37.4a53.54,53.54,0,0,1,11.32,0l3.39,37.4a26.2,26.2,0,0,1,7.16,4.22l29.68-13.73a49.76,49.76,0,0,1,4.27,11.88l-24.85,17.49a21.41,21.41,0,0,1,0,8.34Z"/><polygon class="cls-39" points="504.21 442.9 509.36 448.05 504.21 504.64 524.79 504.64 519.65 448.05 524.79 442.9 519.65 437.77 509.36 437.77 504.21 442.9"/><polygon class="cls-39" points="446.98 487.84 454.01 485.95 500.45 518.7 510.74 500.88 459.15 477.04 457.27 470.01 450.25 471.89 445.1 480.81 446.98 487.84"/><polygon class="cls-39" points="457.28 559.86 459.16 552.84 510.74 529 500.45 511.17 454.01 543.93 446.98 542.04 445.1 549.06 450.25 557.97 457.28 559.86"/><polygon class="cls-39" points="524.8 586.96 519.66 581.82 524.8 525.22 504.21 525.23 509.37 581.82 504.22 586.96 509.36 592.1 519.65 592.1 524.8 586.96"/><polygon class="cls-39" points="582.02 542.03 575.01 543.91 528.57 511.16 518.28 529 569.85 552.83 571.74 559.85 578.77 557.97 583.91 549.06 582.02 542.03"/><polygon class="cls-39" points="571.73 470.01 569.85 477.03 518.27 500.87 528.57 518.7 575 485.95 582.03 487.82 583.91 480.8 578.75 471.89 571.73 470.01"/><path class="cls-39" d="M540.22,514.93a25.72,25.72,0,1,1-25.72-25.72A25.71,25.71,0,0,1,540.22,514.93Z"/><path class="cls-40" d="M575,543.91,539.8,519.08a20.76,20.76,0,0,0,0-8.31L575,486l7,1.88,1.88-7-5.15-8.91-7-1.88-1.88,7-39.13,18.08a25.64,25.64,0,0,0-7.18-4.18l-3.89-42.88,5.14-5.15-5.14-5.13H509.36l-5.15,5.13,5.15,5.15-3.9,42.88a25.29,25.29,0,0,0-7.18,4.19L459.15,477l-1.88-7-7,1.88-5.15,8.92,1.88,7,7-1.89,35.19,24.82a20.86,20.86,0,0,0,0,8.33L454,543.93,447,542l-1.88,7,5.15,8.91,7,1.89,1.88-7,39.13-18.09a25.45,25.45,0,0,0,7.17,4.18l3.9,42.89L504.22,587l5.14,5.14h10.29L524.8,587l-5.14-5.14,3.9-42.89a25.56,25.56,0,0,0,7.16-4.19l39.13,18.09,1.89,7,7-1.88,5.14-8.91L582,542Z"/><path class="cls-1" d="M575,543.91,539.8,519.08a20.76,20.76,0,0,0,0-8.31L575,486l7,1.88,1.88-7-5.15-8.91-7-1.88-1.88,7-39.13,18.08a25.64,25.64,0,0,0-7.18-4.18l-3.89-42.88,5.14-5.15-5.14-5.13H509.36l-5.15,5.13,5.15,5.15-3.9,42.88a25.29,25.29,0,0,0-7.18,4.19L459.15,477l-1.88-7-7,1.88-5.15,8.92,1.88,7,7-1.89,35.19,24.82a20.86,20.86,0,0,0,0,8.33L454,543.93,447,542l-1.88,7,5.15,8.91,7,1.89,1.88-7,39.13-18.09a25.45,25.45,0,0,0,7.17,4.18l3.9,42.89L504.22,587l5.14,5.14h10.29L524.8,587l-5.14-5.14,3.9-42.89a25.56,25.56,0,0,0,7.16-4.19l39.13,18.09,1.89,7,7-1.88,5.14-8.91L582,542Z"/><path class="cls-41" d="M571.73,472.58l7,1.88,4.68,8.1.47-1.76-5.15-8.91-7-1.88-1.88,7-39.13,18.08a25.5,25.5,0,0,0-7.18-4.18l-3.68-40.52-.21.21,3.89,42.88a25.29,25.29,0,0,1,7.18,4.19l39.13-18.09ZM504.22,587l1.29,1.29,3.85-3.86-.21-2.36Zm-50.21-43L447,542l-1.88,7,.47.82,1.41-5.27,7,1.89,35.19-24.82c-.13-.78-.23-1.57-.31-2.36Zm65.65,40.46,3.85,3.85L524.8,587,519.87,582ZM575,543.91l-34.89-24.6c-.08.79-.19,1.57-.32,2.35L575,546.48l7-1.88,1.42,5.28.47-.82L582,542Zm-65.65-93.29-.22-.21-3.68,40.52a25.43,25.43,0,0,0-7.18,4.19L459.15,477l-1.88-7-7,1.88-5.15,8.92.47,1.76,4.68-8.1,7-1.89,1.88,7,39.13,18.08a25.67,25.67,0,0,1,7.18-4.19Z"/><path class="cls-9" d="M524.79,514.93a10.29,10.29,0,1,1-10.29-10.29A10.29,10.29,0,0,1,524.79,514.93Z"/><path class="cls-42" d="M514.5,505.93a10.26,10.26,0,0,1,10.22,9.64c0-.21.07-.42.07-.64a10.29,10.29,0,0,0-20.58,0c0,.22.05.43.07.64A10.26,10.26,0,0,1,514.5,505.93Z"/><path class="cls-43" d="M514.5,430.05a84.88,84.88,0,1,0,84.88,84.88A84.88,84.88,0,0,0,514.5,430.05Zm0,156.9a72,72,0,1,1,72-72A72,72,0,0,1,514.5,587Z"/><path class="cls-1" d="M514.5,430.05a84.88,84.88,0,1,0,84.88,84.88A84.88,84.88,0,0,0,514.5,430.05Zm0,156.9a72,72,0,1,1,72-72A72,72,0,0,1,514.5,587Z"/><path class="cls-19" d="M381.46,568.05,357.1,554l-2,1.09a24.9,24.9,0,0,0,0-18.54l2,1.08,24.37-14.06c.91-.53.34-3.25-1.29-6s-3.68-4.66-4.59-4.13l-24.36,14.06-.07,2.36a25.58,25.58,0,0,0-16.09-9.33l2-1.21V491.11c0-1.05-2.64-1.9-5.88-1.9s-5.88.85-5.88,1.9v28.14l2,1.21a25.58,25.58,0,0,0-16.09,9.33l-.06-2.35-24.37-14.07c-.91-.53-3,1.33-4.59,4.14s-2.2,5.51-1.29,6l24.37,14.07,2-1.08a24.85,24.85,0,0,0,0,18.52l-2-1.08-24.36,14.08c-.92.52-.34,3.23,1.29,6s3.67,4.66,4.58,4.13l24.37-14.06.06-2.36a25.62,25.62,0,0,0,16.11,9.32l-2,1.21v28.14c0,1.06,2.63,1.91,5.88,1.91s5.87-.86,5.87-1.91V572.35l-2-1.22a25.58,25.58,0,0,0,16.1-9.33l.07,2.36,24.36,14.07c.92.53,3-1.33,4.59-4.14S382.37,568.57,381.46,568.05Z"/><path class="cls-1" d="M333.73,478.92c-3.24,0-5.87.85-5.87,1.91V509l2.94,1.81h5.87l2.94-1.81V480.83C339.61,479.77,337,478.92,333.73,478.92Z"/><path class="cls-1" d="M284.72,507.22c-1.62,2.81-2.19,5.51-1.28,6l24.36,14.07,3-1.64,2.94-5.09-.1-3.45-24.37-14.07C288.4,502.56,286.35,504.41,284.72,507.22Z"/><path class="cls-1" d="M284.73,563.81c1.62,2.81,3.67,4.66,4.58,4.13l24.37-14.06.1-3.45-2.94-5.09-3-1.64-24.37,14.07C282.53,558.3,283.1,561,284.73,563.81Z"/><path class="cls-1" d="M333.74,592.1c3.24,0,5.87-.86,5.87-1.91V562.06l-2.94-1.81H330.8l-2.94,1.81v28.13C327.86,591.25,330.49,592.1,333.74,592.1Z"/><path class="cls-1" d="M382.75,563.8c1.62-2.8,2.19-5.51,1.28-6L359.67,543.7l-3,1.63-2.94,5.09.1,3.45,24.36,14.07C379.07,568.47,381.13,566.61,382.75,563.8Z"/><path class="cls-1" d="M382.74,507.21c-1.62-2.81-3.68-4.66-4.59-4.13l-24.36,14.06-.1,3.46,2.94,5.08,3,1.64L384,513.26C384.94,512.73,384.37,510,382.74,507.21Z"/><circle class="cls-1" cx="333.73" cy="535.51" r="25.72" transform="translate(-263.83 738.14) rotate(-76.8)"/><path class="cls-9" d="M333.73,558.66a23.15,23.15,0,1,1,23.15-23.15A23.18,23.18,0,0,1,333.73,558.66Z"/><path class="cls-1" d="M333.73,556.6a21.1,21.1,0,1,1,21.1-21.09A21.11,21.11,0,0,1,333.73,556.6Zm0-41.16a20.07,20.07,0,1,0,20.06,20.07A20.09,20.09,0,0,0,333.73,515.44Z"/><path class="cls-1" d="M333.73,554a18.52,18.52,0,1,1,18.52-18.51A18.54,18.54,0,0,1,333.73,554Zm0-36a17.49,17.49,0,1,0,17.49,17.49A17.51,17.51,0,0,0,333.73,518Z"/><path class="cls-1" d="M333.73,551.45a15.95,15.95,0,1,1,15.95-15.94A16,16,0,0,1,333.73,551.45Zm0-30.86a14.92,14.92,0,1,0,14.92,14.92A14.94,14.94,0,0,0,333.73,520.59Z"/><path class="cls-1" d="M333.73,548.88a13.38,13.38,0,1,1,13.38-13.37A13.39,13.39,0,0,1,333.73,548.88Zm0-25.72a12.35,12.35,0,1,0,12.35,12.35A12.36,12.36,0,0,0,333.73,523.16Z"/><path class="cls-1" d="M333.73,546.31a10.81,10.81,0,1,1,10.81-10.8A10.82,10.82,0,0,1,333.73,546.31Zm0-20.58a9.78,9.78,0,1,0,9.78,9.78A9.79,9.79,0,0,0,333.73,525.73Z"/><path class="cls-1" d="M333.73,543.73a8.23,8.23,0,1,1,8.23-8.22A8.23,8.23,0,0,1,333.73,543.73Zm0-15.43a7.21,7.21,0,1,0,7.2,7.21A7.22,7.22,0,0,0,333.73,528.3Z"/></g></g></svg>